<svg version="1.1" id="Layer_1" xmlns="http://www.w3.org/2000/svg" xmlns:xlink="http://www.w3.org/1999/xlink" x="0px" y="0px"
	 width="100%" viewBox="0 0 1024 1024" enable-background="new 0 0 1024 1024" xml:space="preserve">
<path fill="#00539F" opacity="1.000000" stroke="none" 
	d="
M258.442627,657.482666 
	C244.635498,633.748596 233.066391,609.454224 227.286713,582.784180 
	C225.604187,575.020203 223.555725,567.235901 226.569885,559.204468 
	C230.497177,548.739868 237.647049,542.105408 248.816269,540.940857 
	C258.801819,539.899658 267.044891,543.863892 273.167969,551.910339 
	C276.025848,555.665955 277.995148,559.919434 279.235779,564.437317 
	C287.311951,593.847900 303.524170,618.332947 325.037598,639.467407 
	C355.883331,669.769653 391.820221,691.746887 433.385223,704.076233 
	C463.198120,712.919434 493.813477,716.557678 524.757324,714.448303 
	C571.455505,711.264709 614.820496,697.159424 653.992004,671.165466 
	C685.791138,650.063721 711.639832,623.462158 728.801514,588.976807 
	C733.423645,579.688965 736.127441,569.684998 739.924866,560.093323 
	C745.576355,545.818359 758.592651,538.219910 771.799377,541.339294 
	C786.209412,544.742798 795.320862,557.872681 792.763489,572.482361 
	C787.293701,603.731323 775.502258,632.651245 758.513306,659.291626 
	C719.212830,720.918579 662.538757,759.384583 593.682373,781.048767 
	C565.061462,790.053650 535.574280,794.351990 505.580688,793.812500 
	C449.559753,792.804993 397.593475,777.521973 349.887817,748.043579 
	C312.550476,724.971802 282.152405,694.852539 258.442627,657.482666 
z"/>
<path fill="#00AB4E" opacity="1.000000" stroke="none" 
	d="
M372.666626,540.349976 
	C402.769348,570.033203 438.741180,586.993164 480.073944,592.802551 
	C512.073303,597.299927 543.544067,594.962769 574.014038,583.828491 
	C618.716919,567.493225 653.894958,539.676758 676.316101,497.041748 
	C681.760742,486.688477 685.150391,475.511169 687.823975,464.120514 
	C689.931152,455.142822 693.532532,447.137726 702.038818,442.157013 
	C719.720398,431.803802 742.524475,444.265961 743.345154,464.811890 
	C743.757751,475.142395 741.007812,484.937042 738.238770,494.693207 
	C728.897766,527.605042 714.052063,557.780762 692.520752,584.458984 
	C667.862976,615.011047 637.092041,637.550476 601.098145,653.035645 
	C570.222168,666.318970 537.888855,673.040588 504.347534,672.064331 
	C436.598022,670.092285 379.235809,644.756836 333.752747,593.905212 
	C304.073975,560.723267 285.561096,521.926392 276.215363,478.584656 
	C274.359833,469.979553 273.773895,461.405457 278.107819,453.268188 
	C283.688324,442.790344 292.411896,437.644806 304.308533,438.757568 
	C315.490417,439.803467 323.113342,446.034698 327.134247,456.362823 
	C330.754913,465.662933 332.314270,475.633423 336.171509,484.898376 
	C344.788147,505.595367 356.580750,524.165710 372.666626,540.349976 
z"/>
<path fill="#000000" opacity="1.000000" stroke="none" 
	d="
M467.082428,421.069397 
	C430.148926,405.804047 402.544922,362.215424 404.932556,320.107819 
	C407.799011,269.555603 445.063477,226.363022 498.269257,221.408813 
	C556.179138,216.016586 606.651733,258.292603 612.363403,313.702301 
	C617.763123,366.085510 584.529419,416.501953 529.918884,427.490143 
	C508.290436,431.841980 487.597137,429.921234 467.082428,421.069397 
z"/>
<path fill="#DC071D" opacity="1.000000" stroke="none" 
	d="
M638.457458,492.425476 
	C611.870544,523.933167 578.652161,543.712463 538.404663,550.650024 
	C466.124786,563.108948 395.545776,531.917542 360.690186,463.098053 
	C352.187927,446.311035 345.652985,428.552521 345.680237,409.210449 
	C345.697235,397.136475 353.367126,387.122131 365.022186,383.629730 
	C375.886139,380.374329 387.756073,384.757721 394.405853,394.347565 
	C397.209839,398.391266 398.977417,402.871765 400.160797,407.555847 
	C406.733826,433.572937 423.450775,451.663574 446.466003,463.556305 
	C488.117035,485.078705 530.612793,484.683167 572.005920,463.153046 
	C594.888062,451.251282 611.368713,432.762726 617.750244,406.656708 
	C619.927246,397.751160 623.904663,389.600983 632.846191,385.369537 
	C642.721680,380.696167 652.474365,381.472473 661.203186,387.885956 
	C670.310364,394.577423 673.755066,404.147949 672.058899,415.223083 
	C667.688049,443.763580 657.045898,469.650024 638.457458,492.425476 
z"/>
</svg>