<svg id="visual" viewBox="0 0 900 600" width="900" height="600" xmlns="http://www.w3.org/2000/svg" xmlns:xlink="http://www.w3.org/1999/xlink" version="1.1"><rect x="0" y="0" width="900" height="600" fill="#FDFDFD"></rect><path d="M0 237L18.8 224.5C37.7 212 75.3 187 112.8 186.5C150.3 186 187.7 210 225.2 209.2C262.7 208.3 300.3 182.7 337.8 182.2C375.3 181.7 412.7 206.3 450.2 217.8C487.7 229.3 525.3 227.7 562.8 218C600.3 208.3 637.7 190.7 675.2 177.2C712.7 163.7 750.3 154.3 787.8 155.2C825.3 156 862.7 167 881.3 172.5L900 178L900 0L881.3 0C862.7 0 825.3 0 787.8 0C750.3 0 712.7 0 675.2 0C637.7 0 600.3 0 562.8 0C525.3 0 487.7 0 450.2 0C412.7 0 375.3 0 337.8 0C300.3 0 262.7 0 225.2 0C187.7 0 150.3 0 112.8 0C75.3 0 37.7 0 18.8 0L0 0Z" fill="#7393B3" stroke-linecap="round" stroke-linejoin="miter"></path></svg>